#!OML:ASF F:\VICON\USERDATA\INSTALL\rory3\rory3.ASF
:FULLY-SPECIFIED
:DEGREES
361
root 1.39595 17.2528 3.41478 -1.03957 0.112188 0.885817
lowerback 33.2885 5.2649 3.60101
upperback 8.54001 8.59992 7.51813
thorax -8.23444 3.96032 2.87404
lowerneck -16.0697 -6.83496 -6.12141
upperneck 1.06833 -8.16264 3.99493
head 3.25852 -3.9143 1.57468
rclavicle 1.59028e-015 -3.18055e-015
rhumerus -7.47852 -30.772 -65.9885
rradius 32.4539
rwrist 11.1164
rhand -17.9092 5.09259
rfingers 7.12502
rthumb 8.358 -24.7221
lclavicle 1.59028e-015 -3.18055e-015
lhumerus -43.9591 5.56667 86.6146
lradius 67.7803
lwrist 11.4131
lhand -14.9275 49.5289
lfingers 7.12502
lthumb 11.2347 79.2081
rfemur -11.9007 1.90618 23.0959
rtibia 49.2824
rfoot -26.8067 -16.7531
rtoes -5.84528
lfemur -32.2142 -15.4809 -9.78963
ltibia 18.9744
lfoot -7.61364 6.90438
ltoes -4.00671
362
root 1.36762 17.2736 3.23737 -1.31236 0.766663 1.04313
lowerback 33.8557 4.91325 3.71732
upperback 8.24847 8.25264 7.40085
thorax -8.72033 3.77916 2.77096
lowerneck -14.3535 -6.34364 -6.12336
upperneck -0.215347 -7.59488 3.88267
head 2.88132 -3.66147 1.81839
rclavicle 7.4743e-014 2.54444e-014
rhumerus -9.91399 -31.0654 -65.5405
rradius 35.5428
rwrist 6.81541
rhand -18.6948 4.62544
rfingers 7.12502
rthumb 7.59971 -25.218
lclavicle 7.4743e-014 2.54444e-014
lhumerus -45.1077 6.32493 85.8888
lradius 66.5097
lwrist 12.0848
lhand -15.0957 48.3817
lfingers 7.12502
lthumb 11.0725 78.0697
rfemur -11.999 1.54628 22.8077
rtibia 48.8273
rfoot -26.4517 -16.3527
rtoes -5.14786
lfemur -31.4504 -15.1859 -10.3529
ltibia 19.2284
lfoot -7.29942 5.87998
ltoes -5.11322
363
root 1.34281 17.2815 3.05641 -1.55166 1.50162 1.39102
lowerback 34.1024 4.55522 3.65398
upperback 8.19912 7.79467 7.28072
thorax -8.83696 3.56391 2.83462
lowerneck -13.6876 -6.13625 -6.02232
upperneck -0.697753 -7.36294 3.75465
head 2.56714 -3.55544 1.79623
rclavicle -2.70347e-014 -3.81667e-014
rhumerus -11.7425 -31.7971 -65.3426
rradius 38.6643
rwrist 2.48476
rhand -19.6994 4.18701
rfingers 7.12502
rthumb 6.62998 -25.6892
lclavicle -2.70347e-014 -3.81667e-014
lhumerus -45.8797 7.0998 85.2915
lradius 65.3203
lwrist 12.633
lhand -15.1971 48.0125
lfingers 7.12502
lthumb 10.9747 77.7056
rfemur -12.1468 1.10132 22.3416
rtibia 48.4906
rfoot -26.0978 -16.1267
rtoes -3.12157
lfemur -30.9012 -15.3136 -10.9634
ltibia 19.839
lfoot -7.26339 5.58603
ltoes -6.32147
364
root 1.32817 17.309 2.90071 -1.61247 2.32453 1.6512
lowerback 33.9453 4.15072 3.72529
upperback 8.05537 7.31113 7.17509
thorax -8.8894 3.34157 2.87206
lowerneck -13.4767 -6.14744 -6.03581
upperneck -0.451902 -7.39027 3.67522
head 2.61084 -3.57516 1.77284
rclavicle 6.36111e-014 -3.18055e-015
rhumerus -13.6516 -33.0628 -64.9064
rradius 41.1877
rwrist -1.57171
rhand -20.1508 4.77712
rfingers 7.12502
rthumb 6.19422 -25.1123
lclavicle 6.36111e-014 -3.18055e-015
lhumerus -46.9058 7.51781 84.7281
lradius 64.3945
lwrist 13.3743
lhand -14.8421 48.4702
lfingers 7.12502
lthumb 11.3171 78.1449
rfemur -12.3565 0.34147 21.9469
rtibia 48.1783
rfoot -25.9758 -15.7764
rtoes -0.46558
lfemur -30.669 -15.7395 -11.4088
ltibia 20.8302
lfoot -7.33062 5.83695
ltoes -6.79354
365
root 1.3137 17.3568 2.73618 -1.64985 3.10328 1.75597
lowerback 33.6736 3.73366 3.90853
upperback 8.04934 6.83886 7.1757
thorax -8.74988 3.12797 2.9687
lowerneck -13.4781 -6.15806 -6.32387
upperneck -0.279149 -7.36225 3.67554
head 2.68374 -3.56292 1.82476
rclavicle -5.725e-014 -2.22639e-014
rhumerus -15.1608 -34.4393 -64.4737
rradius 43.5095
rwrist -5.5898
rhand -20.1243 5.44293
rfingers 7.12502
rthumb 6.21986 -24.4458
lclavicle -5.725e-014 -2.22639e-014
lhumerus -47.4258 8.23466 84.3082
lradius 63.0907
lwrist 13.9081
lhand -14.5921 48.6213
lfingers 7.12502
lthumb 11.5581 78.2826
rfemur -12.8235 -0.449894 21.8581
rtibia 47.922
rfoot -25.5441 -15.7625
rtoes -0.389196
lfemur -30.6754 -16.331 -11.5371
ltibia 22.009
lfoot -7.18867 6.33489
ltoes -6.2605
366
root 1.29702 17.3974 2.55349 -1.56967 3.65118 1.65092
lowerback 33.4347 3.45325 4.21731
upperback 8.00911 6.58598 7.21904
thorax -8.66171 3.01169 2.95767
lowerneck -13.3815 -6.25571 -6.33114
upperneck -0.366762 -7.48897 3.49501
head 2.63247 -3.63317 1.75929
rclavicle 4.92986e-014 4.77083e-014
rhumerus -16.9156 -35.7394 -63.8311
rradius 46.2224
rwrist -9.92194
rhand -20.6422 4.71023
rfingers 7.12502
rthumb 5.71981 -25.1926
lclavicle 4.92986e-014 4.77083e-014
lhumerus -47.6742 8.99469 83.8729
lradius 61.4278
lwrist 14.1481
lhand -13.8945 48.9887
lfingers 7.12502
lthumb 12.2309 78.6111
rfemur -13.5816 -0.981553 22.1442
rtibia 47.7652
rfoot -24.8142 -16.1109
rtoes -0.891323
lfemur -30.8677 -16.3985 -11.4356
ltibia 23.2784
lfoot -6.69185 6.5177
ltoes -5.90623
